# xmcd CD database file
#
# Track frame offsets:
#	187
#	17439
#	39539
#	60459
#	82757
#	95939
#	120232
#	149807
#	174144
#
# Disc length: 2575 seconds
#
# Revision: 0
# Processed by: cddbd v1.5PL3 Copyright (c) Steve Scherf et al.
# Submitted via: CDex 1.50
#
DISCID=690a0d09
DTITLE=The Trio - Vol.2 - Hampton Hawes
DYEAR=1956
DGENRE=Jazz
TTITLE0=You And The Night And The Music
TTITLE1=Stella By Starlight
TTITLE2=Blues For Jacque
TTITLE3=Yesterdays
TTITLE4=Steeplechase
TTITLE5='Round Midnight
TTITLE6=Just Squeeze Me
TTITLE7=Autumn In New York
TTITLE8=Section Blues
EXTD=YEAR: 1956
EXTT0=
EXTT1=
EXTT2=
EXTT3=
EXTT4=
EXTT5=
EXTT6=
EXTT7=
EXTT8=
PLAYORDER=
